<svg id="svg" xmlns="http://www.w3.org/2000/svg" xmlns:xlink="http://www.w3.org/1999/xlink" width="400" height="558.8662790697674" viewBox="0, 0, 400,558.8662790697674" version="1.1"><g id="svgg"><path id="path0" d="M332.284 0.826 C 331.006 1.506,329.750 2.185,326.169 4.129 C 325.603 4.436,324.083 5.245,322.791 5.926 C 321.500 6.607,319.761 7.531,318.928 7.979 C 317.527 8.733,315.183 9.976,311.124 12.116 C 310.227 12.589,308.812 13.344,307.979 13.793 C 307.146 14.243,305.416 15.165,304.135 15.841 C 302.854 16.518,301.281 17.360,300.641 17.712 C 300.000 18.064,299.004 18.591,298.427 18.884 C 297.851 19.176,293.815 21.325,289.458 23.658 C 285.102 25.992,280.646 28.369,279.557 28.941 C 274.575 31.557,272.366 32.725,271.287 33.313 C 269.812 34.117,266.708 35.771,264.298 37.035 C 263.273 37.573,262.303 38.122,262.143 38.255 C 261.983 38.388,261.852 38.424,261.852 38.335 C 261.852 38.247,261.564 38.377,261.211 38.625 C 260.859 38.873,259.313 39.729,257.775 40.526 C 254.499 42.224,252.504 43.280,249.621 44.837 C 247.433 46.020,245.610 46.985,241.701 49.032 C 239.234 50.323,236.793 51.633,235.061 52.596 C 234.485 52.916,232.598 53.911,230.868 54.806 C 229.138 55.701,227.618 56.512,227.490 56.607 C 227.362 56.702,225.709 57.581,223.818 58.559 C 220.071 60.496,219.396 60.860,219.220 61.037 C 219.156 61.101,218.160 61.623,217.006 62.196 C 215.853 62.770,214.857 63.294,214.793 63.361 C 214.729 63.428,213.838 63.912,212.813 64.437 C 211.788 64.962,210.215 65.791,209.319 66.278 C 208.422 66.766,206.926 67.565,205.996 68.055 C 205.065 68.545,203.545 69.349,202.618 69.843 C 201.691 70.336,199.936 71.265,198.719 71.907 C 197.501 72.550,195.772 73.472,194.875 73.958 C 193.978 74.443,192.143 75.416,190.798 76.119 C 188.445 77.349,186.930 78.159,183.925 79.790 C 183.157 80.208,181.427 81.125,180.082 81.830 C 178.736 82.534,177.164 83.371,176.587 83.689 C 176.010 84.007,174.595 84.767,173.442 85.379 C 172.289 85.990,170.612 86.880,169.715 87.355 C 168.818 87.831,167.193 88.682,166.104 89.247 C 165.015 89.812,164.071 90.327,164.007 90.392 C 163.943 90.457,162.790 91.076,161.444 91.767 C 160.099 92.459,158.474 93.309,157.833 93.657 C 157.193 94.004,155.620 94.841,154.339 95.516 C 150.286 97.650,145.994 99.942,143.856 101.114 C 143.215 101.465,141.590 102.324,140.245 103.023 C 137.913 104.235,136.355 105.060,130.596 108.135 C 129.197 108.882,127.974 109.493,127.878 109.493 C 127.782 109.493,127.668 109.574,127.626 109.672 C 127.583 109.770,126.447 110.411,125.102 111.096 C 123.757 111.781,122.132 112.630,121.491 112.983 C 120.850 113.336,119.645 113.995,118.812 114.449 C 117.040 115.414,114.925 116.613,114.285 117.015 C 114.038 117.170,112.685 118.013,111.278 118.887 C 108.401 120.676,103.733 123.864,103.203 124.402 C 103.139 124.467,102.458 124.991,101.689 125.566 C 100.920 126.142,100.134 126.779,99.942 126.982 C 99.750 127.186,99.417 127.449,99.202 127.567 C 96.933 128.812,88.050 138.208,85.319 142.253 C 82.177 146.904,80.304 150.582,78.273 156.086 C 77.980 156.882,77.139 160.068,76.737 161.910 C 76.312 163.854,75.989 170.119,75.589 184.158 C 75.516 186.721,75.411 189.971,75.355 191.380 C 75.299 192.790,75.147 197.298,75.018 201.398 C 74.888 205.498,74.736 209.849,74.679 211.066 C 74.622 212.283,74.507 215.638,74.424 218.521 C 74.249 224.559,74.378 223.934,73.368 223.629 C 72.928 223.496,72.384 223.347,72.159 223.297 C 71.935 223.247,70.624 222.894,69.247 222.511 C 67.871 222.129,65.853 221.590,64.764 221.313 C 63.675 221.036,62.469 220.723,62.085 220.618 C 59.619 219.942,55.417 218.808,54.747 218.637 C 54.343 218.534,53.077 218.192,48.690 216.999 C 46.960 216.528,45.387 216.110,45.195 216.069 C 45.003 216.028,44.217 215.823,43.448 215.613 C 42.679 215.404,41.840 215.187,41.584 215.132 C 41.328 215.077,40.594 214.875,39.953 214.683 C 39.313 214.491,37.950 214.115,36.925 213.847 C 35.900 213.579,34.485 213.204,33.780 213.013 C 33.075 212.822,32.079 212.559,31.567 212.429 C 30.052 212.043,30.010 212.032,28.189 211.524 C 27.228 211.256,25.681 210.834,24.752 210.586 C 23.824 210.337,22.251 209.915,21.258 209.648 C 20.265 209.381,18.457 208.901,17.239 208.581 C 16.022 208.261,14.712 207.913,14.327 207.807 C 13.943 207.701,12.842 207.404,11.881 207.148 C 10.920 206.891,9.295 206.452,8.270 206.174 C 7.245 205.895,5.673 205.474,4.776 205.239 C 1.068 204.269,0.450 204.094,0.230 203.959 C 0.079 203.865,0.000 263.737,0.000 379.138 L 0.000 554.459 13.687 554.399 L 27.373 554.339 27.432 397.146 C 27.479 271.187,27.548 239.953,27.783 239.953 C 27.944 239.953,28.442 240.065,28.889 240.201 C 29.337 240.338,31.013 240.797,32.615 241.222 C 35.800 242.068,39.173 242.974,41.351 243.569 C 42.120 243.779,43.745 244.212,44.962 244.532 C 46.179 244.852,47.752 245.269,48.457 245.458 C 49.161 245.648,50.105 245.895,50.553 246.007 C 51.002 246.119,52.365 246.483,53.582 246.817 C 54.799 247.151,55.952 247.465,56.144 247.515 C 56.337 247.565,58.276 248.093,60.454 248.688 C 62.632 249.283,64.834 249.876,65.347 250.006 C 66.971 250.419,67.424 250.539,70.006 251.244 C 72.667 251.971,79.326 253.742,79.674 253.816 C 79.866 253.857,81.557 254.316,83.432 254.835 C 85.308 255.355,87.247 255.883,87.742 256.007 C 88.238 256.132,89.010 256.335,89.458 256.457 C 89.907 256.580,91.322 256.964,92.603 257.310 C 93.885 257.657,95.877 258.197,97.030 258.511 C 98.183 258.825,99.703 259.226,100.408 259.403 C 101.112 259.581,102.056 259.827,102.504 259.952 C 104.285 260.446,107.152 261.215,113.454 262.887 C 115.183 263.347,117.359 263.931,118.288 264.185 C 119.217 264.439,120.789 264.867,121.782 265.135 C 122.775 265.403,123.955 265.725,124.403 265.849 C 124.851 265.974,125.685 266.174,126.256 266.295 C 126.826 266.416,127.980 266.723,128.818 266.977 C 129.657 267.232,131.549 267.758,133.023 268.147 C 134.496 268.535,136.069 268.956,136.517 269.080 C 138.965 269.761,142.681 270.752,143.066 270.826 C 143.444 270.899,146.769 271.794,149.563 272.576 C 151.301 273.062,155.759 274.243,156.177 274.328 C 156.418 274.377,157.188 274.584,157.887 274.787 C 158.585 274.990,159.908 275.352,160.825 275.590 C 161.742 275.829,163.122 276.199,163.891 276.414 C 166.092 277.028,171.218 278.394,172.627 278.743 C 176.026 279.583,178.174 280.218,178.917 280.602 C 180.281 281.307,185.784 284.757,185.867 284.959 C 185.910 285.063,186.084 285.149,186.255 285.149 C 186.426 285.149,186.601 285.227,186.643 285.323 C 186.686 285.419,187.393 285.959,188.215 286.523 C 189.037 287.087,189.876 287.683,190.079 287.848 C 190.282 288.013,191.340 288.859,192.429 289.728 C 198.831 294.837,203.187 300.395,205.272 306.115 L 205.824 307.630 205.824 355.114 L 205.824 402.598 204.745 403.221 C 201.874 404.879,201.282 405.255,201.282 405.416 C 201.281 405.513,201.174 405.591,201.043 405.591 C 200.774 405.591,199.074 406.642,198.369 407.245 C 198.113 407.464,197.582 407.837,197.190 408.073 C 195.958 408.815,191.763 411.840,191.264 412.346 C 191.114 412.499,189.742 413.637,188.457 414.677 C 185.573 417.009,179.134 423.759,176.901 426.791 C 173.818 430.976,169.598 438.434,169.598 439.696 C 169.598 439.799,169.451 440.213,169.271 440.617 C 168.966 441.301,168.629 442.269,168.003 444.263 C 167.863 444.712,167.483 446.332,167.159 447.863 L 166.570 450.648 166.570 504.881 L 166.570 559.115 180.312 559.115 L 194.054 559.115 194.115 505.708 L 194.176 452.301 194.783 450.786 C 196.586 446.291,198.890 442.925,202.919 438.906 C 205.554 436.278,207.193 434.827,208.845 433.663 C 209.208 433.407,209.677 433.037,209.886 432.841 C 210.095 432.644,210.734 432.165,211.306 431.775 C 214.540 429.574,215.347 429.043,217.426 427.747 C 218.682 426.965,219.785 426.325,219.877 426.325 C 219.968 426.325,220.408 426.080,220.854 425.781 C 221.301 425.481,222.347 425.062,223.180 424.849 C 224.013 424.636,225.900 424.138,227.373 423.741 C 228.847 423.344,230.996 422.775,232.149 422.475 C 233.302 422.175,234.875 421.754,235.644 421.540 C 237.926 420.903,238.606 420.721,239.953 420.384 C 241.334 420.040,241.710 419.938,245.079 418.997 C 246.296 418.657,247.868 418.234,248.573 418.057 C 249.278 417.880,251.008 417.422,252.417 417.038 C 255.044 416.324,255.916 416.088,259.755 415.059 C 260.973 414.732,262.598 414.296,263.366 414.089 C 264.135 413.881,265.970 413.402,267.443 413.024 C 269.776 412.425,273.425 411.445,276.063 410.709 C 277.537 410.298,283.862 408.575,284.100 408.520 C 284.228 408.490,284.804 408.332,285.381 408.169 C 285.957 408.005,286.586 407.839,286.778 407.799 C 287.453 407.660,289.008 407.261,290.740 406.784 C 294.613 405.718,297.954 404.814,299.942 404.296 C 303.988 403.240,309.959 401.634,311.532 401.178 C 311.948 401.058,313.547 400.630,315.084 400.228 C 316.622 399.826,318.195 399.408,318.579 399.299 C 318.963 399.190,320.274 398.838,321.491 398.518 C 326.934 397.084,328.198 396.735,329.124 396.409 C 329.666 396.217,330.111 396.099,330.111 396.145 C 330.111 396.192,330.661 396.077,331.334 395.890 C 332.006 395.704,333.500 395.299,334.653 394.993 C 335.807 394.686,337.746 394.159,338.963 393.823 C 341.400 393.150,344.312 392.384,347.350 391.617 C 348.439 391.342,349.462 391.075,349.624 391.022 C 349.785 390.970,349.967 390.915,350.026 390.901 C 350.127 390.877,351.646 390.451,353.291 389.985 C 353.675 389.877,354.985 389.524,356.203 389.203 C 357.420 388.881,359.831 388.244,361.561 387.787 C 363.291 387.330,365.073 386.853,365.521 386.728 C 365.970 386.603,367.542 386.176,369.016 385.779 C 370.489 385.382,371.878 385.005,372.103 384.942 C 372.490 384.832,372.510 389.087,372.510 471.970 L 372.510 559.115 386.255 559.115 L 400.000 559.115 400.000 454.032 C 400.000 354.064,399.980 348.955,399.592 349.068 C 399.183 349.187,397.394 349.654,396.739 349.814 C 396.337 349.912,395.354 350.176,393.361 350.720 C 389.661 351.730,388.412 352.065,383.925 353.247 C 381.367 353.921,378.226 354.763,375.073 355.621 C 373.856 355.952,371.916 356.471,370.763 356.775 C 365.785 358.087,365.101 358.273,363.774 358.678 C 363.005 358.912,362.271 359.113,362.143 359.123 C 362.015 359.134,361.683 359.219,361.405 359.313 C 361.127 359.407,360.707 359.522,360.473 359.570 C 360.238 359.617,359.208 359.883,358.183 360.160 C 357.158 360.437,355.743 360.820,355.038 361.010 C 354.333 361.201,353.547 361.401,353.291 361.456 C 353.034 361.510,352.091 361.771,351.194 362.036 C 350.297 362.301,349.406 362.556,349.214 362.602 C 348.551 362.762,346.998 363.166,346.069 363.419 C 345.556 363.559,344.927 363.717,344.671 363.770 C 344.415 363.823,343.262 364.128,342.108 364.448 C 338.609 365.419,335.621 366.221,334.945 366.370 L 334.304 366.511 334.304 183.256 C 334.304 36.790,334.246 0.006,334.013 0.030 C 333.853 0.047,333.075 0.405,332.284 0.826 M306.640 373.922 C 306.543 374.007,305.626 374.290,304.601 374.551 C 302.454 375.098,298.172 376.227,295.632 376.915 C 292.781 377.689,288.642 378.800,286.896 379.262 C 285.999 379.499,284.688 379.852,283.984 380.046 C 283.279 380.240,280.501 380.983,277.810 381.697 C 275.119 382.411,272.341 383.160,271.637 383.361 C 270.932 383.562,269.412 383.973,268.259 384.275 C 265.627 384.963,262.138 385.896,258.241 386.954 C 257.857 387.058,256.704 387.369,255.679 387.645 C 254.653 387.921,253.029 388.358,252.068 388.618 C 251.107 388.878,249.324 389.351,248.107 389.671 C 246.890 389.991,245.579 390.338,245.195 390.444 C 239.394 392.030,233.874 393.477,233.622 393.477 C 233.519 393.477,233.402 373.532,233.360 349.156 C 233.282 302.293,233.321 304.100,232.307 300.524 C 231.816 298.793,230.901 295.950,230.619 295.282 C 230.457 294.898,230.305 294.531,230.281 294.467 C 226.107 283.189,215.717 271.654,200.779 261.714 C 196.767 259.044,196.865 259.106,196.005 258.709 C 195.601 258.523,195.129 258.236,194.956 258.070 C 194.783 257.905,194.380 257.642,194.059 257.485 C 193.739 257.329,192.848 256.829,192.079 256.374 C 189.815 255.034,188.370 254.419,186.081 253.822 C 184.896 253.513,183.296 253.091,182.528 252.883 C 181.759 252.675,179.819 252.158,178.218 251.733 C 174.976 250.872,170.090 249.564,169.016 249.269 C 168.631 249.163,167.321 248.811,166.104 248.487 C 163.408 247.767,155.348 245.598,154.222 245.289 C 153.774 245.166,153.223 245.022,152.998 244.969 C 152.773 244.915,151.463 244.562,150.086 244.183 C 148.709 243.804,147.321 243.429,147.001 243.350 C 146.680 243.270,145.422 242.935,144.205 242.605 C 141.474 241.863,140.480 241.599,139.952 241.474 C 139.727 241.421,138.364 241.054,136.924 240.659 C 134.515 239.999,133.534 239.733,132.168 239.369 C 131.890 239.295,131.470 239.193,131.236 239.143 C 131.001 239.092,129.971 238.823,128.946 238.546 C 127.921 238.269,126.977 238.016,126.849 237.984 C 126.721 237.953,126.459 237.867,126.267 237.794 C 126.075 237.721,125.655 237.608,125.335 237.542 C 124.756 237.424,124.402 237.330,121.724 236.587 C 120.955 236.374,119.540 235.989,118.579 235.733 C 114.840 234.735,113.256 234.313,111.124 233.747 C 109.907 233.424,108.596 233.074,108.212 232.969 C 107.828 232.864,106.517 232.508,105.300 232.178 C 104.083 231.848,102.772 231.489,102.388 231.380 L 101.689 231.183 101.690 228.521 C 101.691 225.963,101.904 219.050,102.169 212.930 C 102.239 211.328,102.340 208.497,102.393 206.639 C 102.692 196.235,102.985 187.316,103.079 185.731 C 103.185 183.968,103.469 174.945,103.558 170.530 C 103.649 166.038,105.691 160.544,108.493 157.251 C 108.765 156.931,109.374 156.197,109.846 155.620 C 111.124 154.059,113.261 151.876,115.013 150.342 C 115.867 149.593,116.728 148.797,116.926 148.573 C 117.123 148.349,117.410 148.165,117.563 148.165 C 117.716 148.165,117.876 148.070,117.919 147.953 C 118.270 146.993,129.045 140.107,135.352 136.811 C 137.082 135.907,139.231 134.777,140.128 134.299 C 141.025 133.821,142.598 132.986,143.623 132.443 C 144.648 131.901,146.115 131.113,146.884 130.693 C 148.165 129.994,151.538 128.221,155.038 126.408 C 155.807 126.010,156.488 125.628,156.552 125.559 C 156.616 125.491,157.455 125.029,158.416 124.533 C 161.137 123.130,164.453 121.388,165.987 120.557 C 167.663 119.649,170.805 117.986,173.675 116.488 C 174.828 115.886,176.191 115.153,176.704 114.859 C 177.216 114.566,179.051 113.592,180.780 112.695 C 182.510 111.797,184.030 110.981,184.158 110.881 C 184.287 110.780,185.597 110.072,187.070 109.306 C 191.356 107.080,192.710 106.362,193.826 105.726 C 194.403 105.397,195.976 104.552,197.321 103.848 C 198.666 103.145,200.344 102.255,201.048 101.871 C 201.753 101.486,203.430 100.595,204.776 99.889 C 207.117 98.661,208.223 98.073,213.978 94.996 C 215.387 94.242,216.960 93.417,217.472 93.162 C 217.985 92.907,219.138 92.304,220.035 91.821 C 220.932 91.338,222.347 90.592,223.180 90.162 C 224.013 89.733,224.889 89.215,225.126 89.012 C 225.364 88.809,225.574 88.689,225.592 88.745 C 225.620 88.829,227.870 87.685,229.237 86.891 C 229.429 86.780,230.425 86.252,231.450 85.719 C 235.189 83.773,238.212 82.166,238.439 82.003 C 238.567 81.911,240.140 81.069,241.934 80.132 C 243.727 79.196,245.667 78.171,246.243 77.857 C 246.820 77.542,247.606 77.125,247.991 76.930 C 248.375 76.735,249.790 75.976,251.136 75.243 C 253.528 73.939,255.749 72.762,260.687 70.182 C 265.430 67.704,269.519 65.526,271.404 64.475 C 271.980 64.153,273.395 63.390,274.549 62.779 C 275.702 62.168,277.379 61.278,278.276 60.802 C 279.173 60.325,281.165 59.277,282.702 58.473 C 284.240 57.669,286.075 56.679,286.779 56.272 C 287.484 55.865,288.742 55.196,289.575 54.785 C 290.408 54.375,291.823 53.641,292.720 53.156 C 293.617 52.670,295.347 51.741,296.564 51.092 C 297.781 50.443,299.616 49.461,300.641 48.910 C 301.666 48.359,303.448 47.413,304.601 46.808 L 306.698 45.707 306.756 209.737 C 306.788 299.954,306.736 373.837,306.640 373.922 " stroke="none" fill="#FC0" fill-rule="evenodd"></path></g></svg>